<svg width="300" height="300" viewBox="0 0 300 300" fill="none" xmlns="http://www.w3.org/2000/svg">
<circle cx="150" cy="150" r="150" fill="url(#paint0_linear_615_21240)"/>
<mask id="mask0_615_21240" style="mask-type:luminance" maskUnits="userSpaceOnUse" x="0" y="0" width="300" height="300">
<circle cx="150" cy="150" r="150" fill="white"/>
</mask>
<g mask="url(#mask0_615_21240)">
<g filter="url(#filter0_d_615_21240)">
<path fill-rule="evenodd" clip-rule="evenodd" d="M118 188.784V189.215C117.881 198.333 110.215 205.189 95 209.784C113.333 223.117 131.667 233.784 150 233.784C168.333 233.784 186.667 223.117 205 209.784C189.888 205.185 182.223 198.319 182.005 189.187C182.009 187.559 182.017 185.248 182.028 180.906C182.029 180.217 182.031 179.511 182.033 178.789C183.126 178.943 183.037 178.845 182.034 178.567C182.063 167.148 182.112 151.792 182.181 136.188C196.513 117.611 191.248 95.8321 186.756 96.3752C181.246 97.0416 133.543 51.774 124.393 49.4578C115.243 47.1416 92 54.6251 88 75.5001C84 96.3752 82.328 148.993 97.5 170C101.817 175.978 108.617 178.316 117.897 177.015C117.91 181.383 117.936 183.835 118 188.784Z" fill="url(#paint1_linear_615_21240)"/>
<mask id="mask1_615_21240" style="mask-type:luminance" maskUnits="userSpaceOnUse" x="85" y="49" width="120" height="185">
<path fill-rule="evenodd" clip-rule="evenodd" d="M118 188.784V189.215C117.881 198.333 110.215 205.189 95 209.784C113.333 223.117 131.667 233.784 150 233.784C168.333 233.784 186.667 223.117 205 209.784C189.888 205.185 182.223 198.319 182.005 189.187C182.009 187.559 182.017 185.248 182.028 180.906C182.029 180.217 182.031 179.511 182.033 178.789C183.126 178.943 183.037 178.845 182.034 178.567C182.063 167.148 182.112 151.792 182.181 136.188C196.513 117.611 191.248 95.8321 186.756 96.3752C181.246 97.0416 133.543 51.774 124.393 49.4578C115.243 47.1416 92 54.6251 88 75.5001C84 96.3752 82.328 148.993 97.5 170C101.817 175.978 108.617 178.316 117.897 177.015C117.91 181.383 117.936 183.835 118 188.784Z" fill="white"/>
</mask>
<g mask="url(#mask1_615_21240)">
<path d="M118 177C140 174.5 154 165 154 165C154 165 138.86 185.117 118 189V177Z" fill="#FFBE94"/>
</g>
<path fill-rule="evenodd" clip-rule="evenodd" d="M189.5 136.5C196.39 119.93 224 86.1836 200.202 65.1836C192.202 26.1836 148 30.5002 118.5 39.5002C98.6735 45.5491 83.7016 57.5002 80.5004 48.5002C60.5004 65.1836 70.5161 81.5002 83.7016 86.1836C95.668 90.434 115.903 94.6836 150.307 90.6836C156.453 89.9691 155.166 108.792 158.45 110.827C163.377 113.88 167.202 94.6836 180.709 100.447C194.217 106.211 186.202 132.937 171.702 132.937C166.702 132.937 164.202 146.684 177.702 153.184C187.5 158 185.024 147.267 189.5 136.5Z" fill="url(#paint2_linear_615_21240)"/>
</g>
<path fill-rule="evenodd" clip-rule="evenodd" d="M255 240.308C264.52 259.665 270 304.308 270 304.308H30C30 304.308 35.4824 259.66 45 240.308C54.5176 220.956 110.099 203.007 110.099 203.007C120.813 225.005 179.608 225.002 189.871 203C189.871 203 245.48 220.951 255 240.308Z" fill="url(#paint3_linear_615_21240)"/>
<mask id="mask2_615_21240" style="mask-type:luminance" maskUnits="userSpaceOnUse" x="30" y="203" width="240" height="102">
<path fill-rule="evenodd" clip-rule="evenodd" d="M255 240.308C264.52 259.665 270 304.308 270 304.308H30C30 304.308 35.4824 259.66 45 240.308C54.5176 220.956 110.099 203.007 110.099 203.007C120.813 225.005 179.608 225.002 189.871 203C189.871 203 245.48 220.951 255 240.308Z" fill="white"/>
</mask>
<g mask="url(#mask2_615_21240)">
<path fill-rule="evenodd" clip-rule="evenodd" d="M20 236H280V244H20V236ZM20 256H280V264H20V256ZM280 276H20V284H280V276Z" fill="url(#paint4_linear_615_21240)"/>
</g>
</g>
<defs>
<filter id="filter0_d_615_21240" x="57.1865" y="28.3882" width="164.509" height="224.396" filterUnits="userSpaceOnUse" color-interpolation-filters="sRGB">
<feFlood flood-opacity="0" result="BackgroundImageFix"/>
<feColorMatrix in="SourceAlpha" type="matrix" values="0 0 0 0 0 0 0 0 0 0 0 0 0 0 0 0 0 0 127 0" result="hardAlpha"/>
<feOffset dy="7"/>
<feGaussianBlur stdDeviation="6"/>
<feColorMatrix type="matrix" values="0 0 0 0 0 0 0 0 0 0 0 0 0 0 0.145098 0 0 0 0.04 0"/>
<feBlend mode="normal" in2="BackgroundImageFix" result="effect1_dropShadow_615_21240"/>
<feBlend mode="normal" in="SourceGraphic" in2="effect1_dropShadow_615_21240" result="shape"/>
</filter>
<linearGradient id="paint0_linear_615_21240" x1="0" y1="0" x2="0" y2="300" gradientUnits="userSpaceOnUse">
<stop stop-color="#1D0024"/>
<stop offset="1" stop-color="#100014"/>
</linearGradient>
<linearGradient id="paint1_linear_615_21240" x1="205" y1="49.053" x2="205" y2="233.784" gradientUnits="userSpaceOnUse">
<stop stop-color="#FFD4B3"/>
<stop offset="1" stop-color="#FFDCC2"/>
</linearGradient>
<linearGradient id="paint2_linear_615_21240" x1="69.1867" y1="154.368" x2="69.1867" y2="33.3882" gradientUnits="userSpaceOnUse">
<stop stop-color="#E6864E"/>
<stop offset="1" stop-color="#E67240"/>
</linearGradient>
<linearGradient id="paint3_linear_615_21240" x1="270" y1="304.308" x2="270" y2="203" gradientUnits="userSpaceOnUse">
<stop stop-color="#E6864E"/>
<stop offset="1" stop-color="#E67240"/>
</linearGradient>
<linearGradient id="paint4_linear_615_21240" x1="20" y1="236" x2="20" y2="284" gradientUnits="userSpaceOnUse">
<stop stop-color="#F7B186"/>
<stop offset="1" stop-color="#FFC299"/>
</linearGradient>
</defs>
</svg>
