<svg width="300" height="300" viewBox="0 0 300 300" fill="none" xmlns="http://www.w3.org/2000/svg">
<circle cx="150" cy="150" r="150" fill="url(#paint0_linear_615_21144)"/>
<mask id="mask0_615_21144" style="mask-type:luminance" maskUnits="userSpaceOnUse" x="0" y="0" width="300" height="300">
<circle cx="150" cy="150" r="150" fill="white"/>
</mask>
<g mask="url(#mask0_615_21144)">
<path d="M242 243C249.333 257 253 308 253 308H47C47 308 50.6667 257 58 243C69 222 150 195 150 195C150 195 231 222 242 243Z" fill="url(#paint1_linear_615_21144)"/>
<mask id="mask1_615_21144" style="mask-type:luminance" maskUnits="userSpaceOnUse" x="47" y="195" width="206" height="113">
<path d="M242 243C249.333 257 253 308 253 308H47C47 308 50.6667 257 58 243C69 222 150 195 150 195C150 195 231 222 242 243Z" fill="white"/>
</mask>
<g mask="url(#mask1_615_21144)">
<path opacity="0.4" fill-rule="evenodd" clip-rule="evenodd" d="M50 225C53.3137 225 56 222.314 56 219C56 215.686 53.3137 213 50 213C46.6863 213 44 215.686 44 219C44 222.314 46.6863 225 50 225ZM70 245C73.3137 245 76 242.314 76 239C76 235.686 73.3137 233 70 233C66.6863 233 64 235.686 64 239C64 242.314 66.6863 245 70 245ZM110 245C113.314 245 116 242.314 116 239C116 235.686 113.314 233 110 233C106.686 233 104 235.686 104 239C104 242.314 106.686 245 110 245ZM156 239C156 242.314 153.314 245 150 245C146.686 245 144 242.314 144 239C144 235.686 146.686 233 150 233C153.314 233 156 235.686 156 239ZM190 245C193.314 245 196 242.314 196 239C196 235.686 193.314 233 190 233C186.686 233 184 235.686 184 239C184 242.314 186.686 245 190 245ZM236 239C236 242.314 233.314 245 230 245C226.686 245 224 242.314 224 239C224 235.686 226.686 233 230 233C233.314 233 236 235.686 236 239ZM96 219C96 222.314 93.3137 225 90 225C86.6863 225 84 222.314 84 219C84 215.686 86.6863 213 90 213C93.3137 213 96 215.686 96 219ZM210 225C213.314 225 216 222.314 216 219C216 215.686 213.314 213 210 213C206.686 213 204 215.686 204 219C204 222.314 206.686 225 210 225ZM256 219C256 222.314 253.314 225 250 225C246.686 225 244 222.314 244 219C244 215.686 246.686 213 250 213C253.314 213 256 215.686 256 219ZM70 285C73.3137 285 76 282.314 76 279C76 275.686 73.3137 273 70 273C66.6863 273 64 275.686 64 279C64 282.314 66.6863 285 70 285ZM116 279C116 282.314 113.314 285 110 285C106.686 285 104 282.314 104 279C104 275.686 106.686 273 110 273C113.314 273 116 275.686 116 279ZM150 285C153.314 285 156 282.314 156 279C156 275.686 153.314 273 150 273C146.686 273 144 275.686 144 279C144 282.314 146.686 285 150 285ZM196 279C196 282.314 193.314 285 190 285C186.686 285 184 282.314 184 279C184 275.686 186.686 273 190 273C193.314 273 196 275.686 196 279ZM230 285C233.314 285 236 282.314 236 279C236 275.686 233.314 273 230 273C226.686 273 224 275.686 224 279C224 282.314 226.686 285 230 285ZM56 259C56 262.314 53.3137 265 50 265C46.6863 265 44 262.314 44 259C44 255.686 46.6863 253 50 253C53.3137 253 56 255.686 56 259ZM90 265C93.3137 265 96 262.314 96 259C96 255.686 93.3137 253 90 253C86.6863 253 84 255.686 84 259C84 262.314 86.6863 265 90 265ZM136 259C136 262.314 133.314 265 130 265C126.686 265 124 262.314 124 259C124 255.686 126.686 253 130 253C133.314 253 136 255.686 136 259ZM170 265C173.314 265 176 262.314 176 259C176 255.686 173.314 253 170 253C166.686 253 164 255.686 164 259C164 262.314 166.686 265 170 265ZM216 259C216 262.314 213.314 265 210 265C206.686 265 204 262.314 204 259C204 255.686 206.686 253 210 253C213.314 253 216 255.686 216 259ZM250 265C253.314 265 256 262.314 256 259C256 255.686 253.314 253 250 253C246.686 253 244 255.686 244 259C244 262.314 246.686 265 250 265ZM56 299C56 302.314 53.3137 305 50 305C46.6863 305 44 302.314 44 299C44 295.686 46.6863 293 50 293C53.3137 293 56 295.686 56 299ZM90 305C93.3137 305 96 302.314 96 299C96 295.686 93.3137 293 90 293C86.6863 293 84 295.686 84 299C84 302.314 86.6863 305 90 305ZM136 299C136 302.314 133.314 305 130 305C126.686 305 124 302.314 124 299C124 295.686 126.686 293 130 293C133.314 293 136 295.686 136 299ZM170 305C173.314 305 176 302.314 176 299C176 295.686 173.314 293 170 293C166.686 293 164 295.686 164 299C164 302.314 166.686 305 170 305ZM216 299C216 302.314 213.314 305 210 305C206.686 305 204 302.314 204 299C204 295.686 206.686 293 210 293C213.314 293 216 295.686 216 299ZM250 305C253.314 305 256 302.314 256 299C256 295.686 253.314 293 250 293C246.686 293 244 295.686 244 299C244 302.314 246.686 305 250 305Z" fill="#13001E"/>
</g>
<path fill-rule="evenodd" clip-rule="evenodd" d="M160.865 52.705C156.865 35.205 175.832 21.7759 195.365 30.9947C241.365 52.705 214 83 197 81C180 79 164.865 70.205 160.865 52.705Z" fill="url(#paint2_linear_615_21144)"/>
<mask id="mask2_615_21144" style="mask-type:luminance" maskUnits="userSpaceOnUse" x="160" y="28" width="61" height="54">
<path fill-rule="evenodd" clip-rule="evenodd" d="M160.865 52.705C156.865 35.205 175.832 21.7759 195.365 30.9947C241.365 52.705 214 83 197 81C180 79 164.865 70.205 160.865 52.705Z" fill="white"/>
</mask>
<g mask="url(#mask2_615_21144)">
<g style="mix-blend-mode:multiply" opacity="0.6">
<path fill-rule="evenodd" clip-rule="evenodd" d="M177.5 55.5C177.5 55.5 211.5 77.5 220 65.5C220.877 70.5108 216.844 84.6651 210.5 84.5C191.523 84.0061 177.5 55.5 177.5 55.5Z" fill="#E0713F"/>
</g>
</g>
<path fill-rule="evenodd" clip-rule="evenodd" d="M172 163C150.516 173.321 147.382 172.768 99.9997 134C28.4997 75.5001 95.9997 22.0001 168.5 50.5001C247 85.0001 220.7 139.605 172 163Z" fill="url(#paint3_linear_615_21144)"/>
<path fill-rule="evenodd" clip-rule="evenodd" d="M174 204C166.667 216 133.333 216 126 204V184C126 184 122.738 184.096 120.5 184C97.1108 182.998 89.2947 145.373 92.9653 107.738C95.6533 80.1761 119 118 157 91.5C155.5 120.5 168 117.5 173.5 114C198.5 102.5 198.709 149.642 174 146V204Z" fill="url(#paint4_linear_615_21144)"/>
<path d="M126 184C139.5 183 159.634 168.899 159.634 168.899C159.634 168.899 150 189.5 126 193L126 184Z" fill="#FFBB94"/>
<path d="M174 201.46V195C175.834 195 181.085 199.332 183.786 203C194.462 217.5 182.62 230.5 172.962 230.5C160.776 230.5 152.702 220.318 150 215.42C147.298 220.318 139.224 230.5 127.038 230.5C117.38 230.5 105.538 217.5 116.214 203C118.915 199.332 124.166 195 126 195V201.46C126 209.108 142.74 212.648 149.967 212.975C156.808 212.648 174 209.108 174 201.46Z" fill="#FFF9F5"/>
<path fill-rule="evenodd" clip-rule="evenodd" d="M162.59 71.4278C146.59 111.428 155.59 130.928 168.09 154.428C180.59 177.928 165.09 199.928 165.09 199.928C165.09 199.928 183.09 188.428 183.09 162.928C183.09 137.428 165.09 121.428 180.09 100.428C195.09 79.4278 178.59 31.4278 162.59 71.4278Z" fill="url(#paint5_linear_615_21144)"/>
</g>
<defs>
<linearGradient id="paint0_linear_615_21144" x1="0" y1="0" x2="0" y2="300" gradientUnits="userSpaceOnUse">
<stop stop-color="#1D0024"/>
<stop offset="1" stop-color="#100014"/>
</linearGradient>
<linearGradient id="paint1_linear_615_21144" x1="47" y1="195" x2="47" y2="308" gradientUnits="userSpaceOnUse">
<stop stop-color="#806A6A"/>
<stop offset="1" stop-color="#665654"/>
</linearGradient>
<linearGradient id="paint2_linear_615_21144" x1="160.326" y1="81.0941" x2="160.326" y2="28" gradientUnits="userSpaceOnUse">
<stop stop-color="#E6864E"/>
<stop offset="1" stop-color="#E67240"/>
</linearGradient>
<linearGradient id="paint3_linear_615_21144" x1="218.326" y1="168.684" x2="218.326" y2="42.6074" gradientUnits="userSpaceOnUse">
<stop stop-color="#E6864E"/>
<stop offset="1" stop-color="#E67240"/>
</linearGradient>
<linearGradient id="paint4_linear_615_21144" x1="92.1016" y1="91.5" x2="92.1016" y2="213" gradientUnits="userSpaceOnUse">
<stop stop-color="#FFD4B3"/>
<stop offset="1" stop-color="#FFDCC2"/>
</linearGradient>
<linearGradient id="paint5_linear_615_21144" x1="154" y1="199.928" x2="154" y2="56" gradientUnits="userSpaceOnUse">
<stop stop-color="#E6864E"/>
<stop offset="1" stop-color="#E57442"/>
</linearGradient>
</defs>
</svg>
